<?xml version="1.0" encoding="UTF-8"?>
<svg version="1.1" xmlns="http://www.w3.org/2000/svg" width="583" height="582">
<path d="M0,0 L583,0 L583,582 L0,582 Z M283,92 L265,94 L248,98 L235,102 L239,103 L262,98 L280,96 L311,96 L334,99 L344,100 L341,98 L324,94 L307,92 Z M344,100 L348,101 Z M348,101 Z M353,102 Z M233,103 Z M356,103 Z M230,104 Z M359,104 Z M227,105 Z M361,105 L365,108 L397,124 L412,134 L422,144 L430,151 L442,163 L442,160 L434,152 L427,144 L418,135 L389,116 L374,108 L364,105 Z M224,106 L211,111 L199,117 L182,129 L181,131 L186,129 L208,116 L227,107 Z M179,131 L178,133 L181,132 Z M176,133 Z M175,134 Z M174,135 Z M172,136 L171,138 L174,137 Z M170,138 Z M168,139 L160,145 L151,156 L139,169 L133,177 L119,203 L113,215 L109,228 L110,232 L118,209 L135,180 L142,170 L153,158 L167,143 L170,139 Z M443,163 Z M444,164 Z M445,165 Z M446,166 Z M447,167 Z M448,168 Z M449,169 L451,174 L465,199 L471,209 L484,253 L486,286 L486,304 L478,346 L460,387 L461,389 L467,380 L482,345 L487,320 L490,303 L490,289 L488,254 L476,212 L460,183 L454,174 Z M291,171 L290,175 L295,175 L294,171 Z M305,171 L303,172 L303,175 L307,176 L308,172 Z M316,172 L317,176 L321,175 L320,172 Z M329,172 L329,176 L333,176 L332,172 Z M341,173 L341,177 L345,177 L344,173 Z M353,174 L354,178 L358,177 L356,174 Z M209,175 L207,179 L211,178 L211,175 Z M198,176 L196,180 L201,179 L200,176 Z M188,177 L186,181 L190,180 L189,177 Z M179,179 L178,183 L181,182 L181,179 Z M172,180 L170,184 L173,183 Z M277,181 L276,185 L279,186 L282,184 L281,181 Z M290,181 L289,185 L293,186 L295,185 L294,181 Z M304,181 L302,182 L303,186 L308,185 L307,181 Z M163,182 L161,185 L164,185 L165,182 Z M318,181 L315,184 L316,186 L321,186 L321,182 Z M329,182 L329,186 L333,187 L334,183 Z M341,183 L342,187 L345,188 L347,187 L346,183 Z M216,184 L214,187 L218,188 L219,184 Z M354,184 L354,188 L359,188 L358,184 Z M205,185 L203,189 L208,188 L209,185 Z M366,185 L367,189 L371,189 L370,185 Z M194,186 L192,189 L196,190 L198,186 Z M183,187 L182,191 L187,190 L187,187 Z M176,188 L174,190 L175,193 L178,191 L178,188 Z M168,189 L165,192 L165,194 L169,193 L170,190 Z M159,191 L157,195 L161,194 L161,191 Z M278,191 L275,193 L276,197 L281,196 L281,192 Z M291,191 L288,194 L289,197 L292,198 L295,196 L294,192 Z M303,192 L302,197 L307,198 L308,193 Z M317,192 L315,196 L317,198 L321,198 L322,194 L320,192 Z M331,192 L329,193 L330,198 L335,198 L334,193 Z M152,192 L149,195 L152,196 L153,192 Z M343,193 L342,198 L347,199 L348,195 Z M213,194 L212,199 L217,198 L216,194 Z M356,194 L354,198 L356,200 L360,200 L359,195 Z M202,195 L201,200 L203,201 L206,199 L205,195 Z M181,196 L179,198 L179,202 L184,201 L183,196 Z M191,196 L190,201 L195,200 L195,196 Z M367,196 L368,200 L372,200 L371,196 Z M171,198 L170,203 L174,202 L175,199 Z M163,199 L162,204 L165,204 L166,199 Z M155,200 L154,201 L154,206 L157,205 L158,201 Z M147,202 L146,206 L149,206 L150,202 Z M276,204 L274,208 L276,210 L280,209 L280,205 Z M290,204 L288,208 L289,210 L294,210 L295,206 L293,204 Z M305,204 L302,206 L303,210 L306,211 L309,208 L308,205 Z M317,205 L316,210 L321,211 L322,206 Z M331,205 L329,209 L331,211 L335,211 L336,208 L334,205 Z M212,206 L210,208 L211,212 L215,211 L214,206 Z M344,206 L343,211 L348,212 L349,208 L347,206 Z M200,207 L199,212 L203,212 L204,207 Z M356,207 L355,210 L358,213 L361,212 L360,207 Z M179,208 L177,210 L177,214 L181,214 L182,209 Z M189,208 L188,213 L193,212 L193,208 Z M369,208 L368,211 L369,213 L374,212 L372,208 Z M170,209 L168,211 L168,215 L172,214 L172,209 Z M162,210 L160,212 L160,216 L164,214 L163,210 Z M154,211 L151,214 L152,217 L155,216 L156,213 Z M145,213 L143,217 L146,217 L147,213 Z M276,217 L274,218 L275,223 L280,222 L279,217 Z M290,217 L288,218 L289,223 L294,222 L294,218 Z M304,217 L302,219 L303,223 L306,224 L309,222 L308,218 Z M317,218 L316,222 L318,224 L322,223 L321,218 Z M331,218 L330,223 L335,224 L336,219 Z M199,219 L197,221 L198,225 L202,224 L203,221 L202,219 Z M210,219 L209,224 L213,224 L214,220 Z M344,219 L343,223 L345,225 L349,224 L348,219 Z M358,219 L356,223 L357,225 L362,225 L363,222 L360,219 Z M177,220 L174,223 L175,226 L179,225 L180,221 Z M187,220 L186,225 L190,225 L191,220 Z M371,220 L369,223 L371,226 L375,225 L374,221 Z M159,222 L157,224 L158,228 L161,227 L161,222 Z M168,221 L166,222 L166,227 L170,225 L169,221 Z M150,223 L149,224 L149,229 L153,227 L153,223 Z M142,224 L141,229 L144,228 L144,224 Z M275,230 L273,232 L274,236 L279,235 L279,231 Z M289,230 L287,232 L288,236 L291,237 L294,235 L293,231 Z M304,230 L302,232 L302,236 L306,237 L309,234 L308,231 Z M209,231 L207,233 L207,237 L212,236 L211,231 Z M317,231 L316,235 L318,237 L322,236 L323,233 L322,231 Z M331,231 L330,236 L331,237 L336,237 L337,234 L335,231 Z M108,232 L109,235 Z M185,232 L183,234 L184,238 L188,237 L189,233 Z M196,232 L195,237 L199,237 L201,233 Z M344,232 L344,237 L348,238 L350,237 L349,232 Z M359,232 L357,233 L358,238 L363,237 L362,233 Z M165,233 L163,238 L167,238 L168,234 Z M173,233 L172,238 L177,237 L178,234 Z M372,233 L370,236 L373,239 L376,238 L375,234 Z M156,234 L154,239 L158,239 L159,234 Z M107,235 L108,238 Z M147,235 L146,240 L150,239 L150,235 Z M139,236 L138,241 L141,240 L141,236 Z M106,239 L107,241 Z M105,242 L106,245 Z M195,244 L193,245 L193,250 L196,251 L198,250 L198,245 Z M206,244 L205,249 L209,250 L210,245 Z M273,244 L273,249 L277,250 L279,249 L278,244 Z M288,244 L287,249 L292,250 L294,246 L293,244 Z M302,244 L301,248 L304,251 L308,249 L307,244 Z M317,244 L316,249 L318,251 L322,250 L323,246 L321,244 Z M332,244 L330,246 L331,250 L335,251 L337,249 L336,245 Z M104,245 L105,248 Z M171,245 L170,250 L174,251 L175,250 L175,245 Z M184,244 L181,246 L182,251 L186,250 L187,246 Z M345,245 L344,250 L345,251 L350,251 L350,246 Z M359,245 L357,249 L359,252 L363,251 L364,248 L362,245 Z M153,246 L152,251 L156,251 L156,246 Z M163,245 L161,246 L161,251 L164,251 L165,246 Z M372,246 L371,251 L376,252 L377,248 L375,246 Z M137,247 L135,251 L136,253 L138,253 L139,248 Z M144,247 L143,251 L146,253 L147,252 L147,247 Z M103,249 L104,251 Z M102,252 L101,257 L101,269 L102,269 L103,252 Z M171,258 L169,260 L170,264 L174,264 L175,260 Z M182,258 L181,259 L181,264 L185,264 L186,259 Z M194,258 L192,260 L193,264 L197,264 L198,259 Z M206,258 L204,260 L205,264 L209,264 L210,260 Z M274,258 L272,262 L275,265 L279,263 L278,259 Z M288,258 L287,259 L287,264 L292,265 L294,261 L292,258 Z M303,258 L301,260 L302,264 L307,265 L308,260 L306,258 Z M318,258 L316,260 L317,265 L322,264 L323,261 L320,258 Z M144,259 L143,260 L143,265 L146,265 L147,260 Z M152,259 L151,264 L155,265 L155,259 Z M161,259 L160,264 L164,264 L164,259 Z M331,259 L330,263 L331,265 L336,265 L337,260 L336,259 Z M345,259 L344,264 L348,266 L351,263 L349,259 Z M135,260 L135,265 L138,264 L138,260 Z M360,259 L358,260 L358,265 L363,266 L364,261 Z M373,260 L371,264 L372,266 L376,266 L377,262 Z M100,271 L100,281 L101,281 L101,271 Z M143,272 L142,273 L142,278 L146,277 L145,272 Z M152,272 L150,276 L151,278 L154,278 L155,273 Z M160,272 L159,277 L163,278 L164,273 Z M170,272 L168,276 L169,278 L174,277 L173,272 Z M181,272 L180,277 L185,278 L186,274 L185,272 Z M193,272 L192,273 L192,278 L195,279 L197,278 L197,273 Z M205,272 L204,273 L204,278 L209,277 L208,272 Z M134,273 L134,278 L137,277 L137,273 Z M273,273 L272,278 L277,279 L279,275 L278,273 Z M287,273 L286,277 L287,279 L292,279 L293,274 L292,273 Z M302,273 L301,278 L305,280 L308,278 L307,273 Z M317,273 L316,274 L316,279 L321,280 L323,276 L321,273 Z M332,273 L330,275 L331,279 L335,280 L337,278 L336,274 Z M346,273 L344,275 L345,280 L350,279 L351,276 L349,273 Z M360,273 L358,275 L359,280 L364,279 L363,274 Z M373,274 L371,278 L372,280 L377,279 L376,275 Z M99,284 L99,301 L100,301 L100,284 Z M134,285 L133,290 L136,290 L137,287 L136,285 Z M142,285 L141,290 L145,290 L145,285 Z M151,285 L150,286 L150,291 L154,290 L153,285 Z M160,285 L159,286 L159,291 L162,291 L163,286 Z M170,285 L168,286 L168,291 L172,292 L173,291 L173,286 Z M180,286 L179,291 L184,292 L185,287 Z M192,286 L191,291 L196,292 L197,288 L196,286 Z M205,286 L203,288 L204,292 L206,293 L209,290 L207,286 Z M274,287 L272,288 L272,293 L276,294 L278,293 L278,288 Z M288,287 L286,289 L287,293 L291,294 L293,292 L292,288 Z M303,287 L301,289 L302,294 L307,293 L308,289 L306,287 Z M318,287 L316,289 L317,294 L322,293 L322,288 Z M331,288 L330,293 L334,295 L337,292 L336,288 Z M345,288 L344,293 L348,295 L350,294 L350,289 Z M359,288 L358,293 L361,295 L364,293 L363,288 Z M373,288 L371,292 L372,294 L377,293 L376,289 Z M133,298 L132,301 L133,303 L136,302 L135,298 Z M141,298 L140,301 L142,304 L144,304 L144,298 Z M150,298 L149,303 L153,304 L153,299 Z M160,298 L158,299 L158,304 L162,304 L162,299 Z M168,299 L167,303 L168,305 L172,305 L173,302 L171,299 Z M180,299 L179,300 L179,305 L183,306 L184,301 Z M191,300 L190,304 L191,306 L196,305 L195,300 Z M204,300 L202,304 L205,307 L208,305 L207,301 Z M273,302 L271,306 L273,308 L278,307 L277,302 Z M287,302 L286,307 L290,309 L293,306 L291,302 Z M302,302 L301,303 L301,308 L305,309 L307,308 L307,303 Z M317,302 L315,304 L316,308 L320,309 L322,308 L322,303 Z M332,302 L330,304 L331,308 L335,309 L337,304 L335,302 Z M346,302 L344,304 L345,309 L350,308 L350,303 Z M359,302 L358,303 L358,308 L362,309 L364,307 L363,303 Z M100,303 L100,308 L101,308 L101,303 Z M374,302 L371,305 L372,308 L377,307 L376,303 Z M101,310 L101,316 L102,316 L102,310 Z M134,310 L134,315 L137,315 L136,310 Z M143,310 L141,314 L142,316 L146,315 L144,310 Z M151,311 L150,316 L154,317 L154,312 Z M159,312 L159,317 L163,318 L163,313 Z M169,312 L168,317 L172,319 L173,318 L173,313 Z M180,313 L179,317 L180,319 L185,318 L184,313 Z M193,313 L191,315 L192,319 L196,320 L197,316 L194,313 Z M204,314 L203,319 L208,320 L209,317 L207,314 Z M102,316 L102,323 L103,323 L103,316 Z M273,316 L271,320 L274,323 L278,321 L277,317 Z M287,316 L285,320 L287,323 L292,322 L292,317 Z M302,316 L300,318 L301,322 L305,323 L307,321 L306,317 Z M317,316 L315,318 L316,323 L321,322 L322,319 L319,316 Z M332,316 L329,319 L331,323 L335,322 L336,318 Z M345,316 L343,318 L344,322 L347,323 L349,322 L349,317 Z M358,316 L357,317 L357,322 L360,323 L363,321 L362,317 Z M372,316 L370,318 L371,322 L375,321 L375,317 Z M135,322 L135,327 L138,327 L137,322 Z M103,323 L103,331 L105,340 L106,340 L105,329 L104,323 Z M143,323 L143,328 L147,328 L146,323 Z M152,324 L151,328 L152,330 L155,330 L155,325 Z M160,325 L160,330 L164,331 L164,326 Z M170,326 L169,330 L173,332 L174,327 Z M182,326 L180,328 L181,332 L185,332 L186,329 L184,326 Z M193,327 L192,332 L197,333 L197,328 Z M205,328 L204,333 L208,334 L209,329 Z M288,330 L285,333 L287,337 L291,336 L292,332 Z M302,330 L300,331 L300,336 L305,337 L307,333 L304,330 Z M344,330 L342,332 L343,336 L346,337 L349,334 L347,330 Z M357,330 L356,335 L360,336 L362,334 L361,330 Z M370,330 L369,334 L372,336 L375,334 L374,330 Z M274,330 L271,333 L273,337 L277,336 L278,333 L275,330 Z M315,331 L314,335 L316,337 L321,336 L320,331 Z M330,331 L329,336 L334,337 L335,332 Z M137,334 L136,338 L139,340 L139,335 Z M145,335 L144,340 L148,341 L147,336 Z M153,336 L152,340 L153,342 L156,342 L156,337 Z M161,338 L162,343 L165,343 L164,338 Z M171,339 L170,343 L174,345 L175,340 Z M106,340 L107,345 L108,342 Z M182,340 L181,344 L185,346 L187,342 L186,340 Z M194,340 L192,344 L194,347 L198,346 L197,341 Z M205,342 L204,345 L207,348 L210,346 L209,342 Z M357,343 L355,345 L356,350 L360,349 L361,345 Z M370,343 L368,345 L369,349 L373,348 L373,344 Z M287,344 L285,346 L286,350 L290,351 L292,349 L291,345 Z M302,344 L299,347 L301,351 L306,350 L305,345 Z M316,344 L314,346 L315,351 L320,350 L321,347 L318,344 Z M343,344 L342,345 L342,350 L347,350 L348,345 Z M108,345 L110,354 L118,376 L130,396 L139,410 L146,417 L146,414 L124,381 L118,368 L109,345 Z M274,344 L271,346 L272,350 L276,351 L278,347 L275,344 Z M331,344 L328,346 L329,351 L334,350 L335,347 L332,344 Z M138,346 L137,350 L141,351 L139,346 Z M146,347 L145,351 L149,353 L148,348 Z M154,349 L154,353 L158,354 L156,349 Z M163,350 L162,354 L166,356 L166,351 Z M171,352 L172,357 L176,357 L175,352 Z M183,353 L182,357 L187,358 L186,353 Z M194,354 L193,357 L194,359 L199,359 L198,354 Z M206,355 L205,359 L210,360 L209,355 Z M356,357 L354,359 L355,363 L360,362 L359,357 Z M368,357 L367,361 L372,362 L373,358 Z M273,358 L271,362 L273,364 L277,363 L277,359 Z M287,358 L285,360 L286,364 L291,364 L292,360 L290,358 Z M301,358 L299,360 L300,364 L305,364 L306,360 L304,358 Z M315,358 L313,362 L314,364 L319,364 L320,360 L318,358 Z M330,358 L328,359 L328,364 L333,363 L333,359 Z M342,358 L341,363 L344,364 L347,362 L346,358 Z M148,359 L149,363 L151,363 L150,359 Z M157,360 L157,364 L160,365 L159,361 Z M165,362 L166,366 L169,366 L167,362 Z M174,364 L175,368 L178,368 L177,364 Z M184,365 L185,369 L189,369 L188,365 Z M196,366 L195,368 L197,371 L200,370 L199,366 Z M341,370 L340,375 L345,374 L344,370 Z M354,370 L353,374 L358,373 L358,370 Z M286,371 L285,375 L289,376 L291,372 Z M300,371 L299,375 L303,376 L305,372 Z M314,371 L313,375 L317,376 L319,372 Z M328,371 L327,375 L331,376 L332,371 Z M459,389 L455,394 L456,396 L460,391 Z M454,396 L443,410 L430,425 L422,432 L405,445 L395,453 L397,454 L406,449 L416,440 L427,431 L435,424 L442,416 L455,398 Z M147,417 Z M148,418 Z M149,419 Z M150,420 Z M151,421 Z M152,422 Z M153,423 Z M154,424 Z M155,425 Z M156,426 Z M157,427 Z M158,428 L164,435 L171,442 L181,449 L185,450 L180,445 L167,434 L160,428 Z M185,450 Z M186,451 Z M188,452 L189,454 L191,453 Z M191,454 Z M393,454 L392,456 L395,455 Z M193,455 L197,459 L218,470 L237,476 L242,476 L239,474 L227,470 L198,457 Z M390,456 Z M389,457 Z M387,458 Z M384,459 Z M382,460 Z M380,461 Z M377,462 L352,472 L327,479 L327,480 L338,479 L353,475 L364,471 L380,463 Z M242,476 L246,477 Z M246,477 Z M251,478 Z M255,479 Z M260,480 L264,482 L282,484 L299,484 L299,482 L273,481 Z M321,480 L321,481 L327,481 L327,480 Z M314,481 L314,482 L319,482 L319,481 Z M302,482 L302,483 L312,483 L312,482 Z " fill="#000000" transform="translate(0,0)"/>
</svg>
